<?xml version="1.0" encoding="UTF-8"?>
<svg version="1.1" xmlns="http://www.w3.org/2000/svg" width="48" height="48">
<path d="M0 0 C15.84 0 31.68 0 48 0 C48 15.84 48 31.68 48 48 C32.16 48 16.32 48 0 48 C0 32.16 0 16.32 0 0 Z " fill="#560202" transform="translate(0,0)"/>
<path d="M0 0 C1.32 0 2.64 0 4 0 C4 0.99 4 1.98 4 3 C4.33 2.01 4.66 1.02 5 0 C6.65 0 8.3 0 10 0 C10 0.99 10 1.98 10 3 C10.33 2.01 10.66 1.02 11 0 C11.721875 0.185625 12.44375 0.37125 13.1875 0.5625 C16.12826973 1.01995307 18.14103058 0.73516357 21 0 C21.33 0.99 21.66 1.98 22 3 C22.33 2.01 22.66 1.02 23 0 C24.32 0 25.64 0 27 0 C27.33 1.65 27.66 3.3 28 5 C27.34 5 26.68 5 26 5 C25.67 4.01 25.34 3.02 25 2 C24.67 2.99 24.34 3.98 24 5 C17.4 5 10.8 5 4 5 C3.67 6.32 3.34 7.64 3 9 C2.34 9 1.68 9 1 9 C1 7.68 1 6.36 1 5 C0.01 5 -0.98 5 -2 5 C-1.125 1.125 -1.125 1.125 0 0 Z " fill="#D4BFBF" transform="translate(11,20)"/>
<path d="M0 0 C1.32 0 2.64 0 4 0 C4 0.99 4 1.98 4 3 C4.66 2.67 5.32 2.34 6 2 C6 2.99 6 3.98 6 5 C5.34 5 4.68 5 4 5 C3.67 6.32 3.34 7.64 3 9 C2.34 9 1.68 9 1 9 C1 7.68 1 6.36 1 5 C0.01 5 -0.98 5 -2 5 C-1.125 1.125 -1.125 1.125 0 0 Z " fill="#DDCCCC" transform="translate(11,20)"/>
<path d="M0 0 C1.32 0 2.64 0 4 0 C4 0.66 4 1.32 4 2 C3.34 2 2.68 2 2 2 C2 2.66 2 3.32 2 4 C0.68 4.33 -0.64 4.66 -2 5 C-1.125 1.125 -1.125 1.125 0 0 Z " fill="#BC9B9B" transform="translate(11,20)"/>
</svg>
